<svg width="787" height="421" version="1.1" xmlns="http://www.w3.org/2000/svg">
<linearGradient id="lgSpectrum">
<stop stop-color="#4C34A3"/>
<stop offset=".1067" stop-color="#5380AD"/>
<stop offset=".2528" stop-color="#2A8EB0"/>
<stop offset=".3146" stop-color="#4EABAE"/>
<stop offset=".3652" stop-color="#4CBF35"/>
<stop offset=".5056" stop-color="#EEF059"/>
<stop offset=".5899" stop-color="#F2CA61"/>
<stop offset=".6348" stop-color="#E48D3C"/>
<stop offset=".8034" stop-color="#FF5B45"/>
<stop offset="1" stop-color="#BF2626"/>
</linearGradient>
<rect x="21.16" y="68.16" width="744" height="81" fill="#DBDBDB"/>
<rect x="87.16" y="238.16" width="425" height="116" fill="url(#lgSpectrum)"/>
<rect x="297.79" y="68.16" width="12.25" height="81" fill="url(#lgSpectrum)"/>

<g fill="none" stroke="#000">
<path d="M60.5 61.16v7m53.41 0v-7m53.42 0v7m53.42 0v-7m53.41 0v7m53.42 0v-7m53.42 0v7m53.41 0v-7m53.42 0v7m53.42 0v-7m53.41 0v7m53.42 0v-7m53.42 0v7"/>
<path d="M185.16 68.16v81m76 0v-81m137 0v81m80.34 7v-88m26.7 0V88.4m0 42.6v18.16m26.71 7V131m0-42.6V68.16m26.71 0v81"/>
<path d="M51.16 149.16v7m53.42 0v-7m53.42 0v7m53.41 0v-7m53.42 0v7m53.42 0v-7m53.41 0v7m53.42 0v-7m160.25 0v7m53.42 0v-7m53.41 0v7"/>
<path d="M87.16 238.16v-15L297.79 184.5V149.16m214.37 89v-15L310.04 184.5V149.16" stroke-dasharray="4.44,4"/>
<path d="M512.16 354.16v7h-425v-7m13.28 0v7m13.29 0v-7m13.28 0v7m13.28 0v-7m13.28 0v7m13.28 0v-7m13.28 0v7m13.28 0v-7m13.28 0v7m13.29 0v-7m13.28 0v7m13.28 0v-7m13.28 0v7m13.28 0v-7m13.28 0v7m13.28 0v-7m13.28 0v7m13.29 0v-7m13.28 0v7m13.28 0v-7m13.28 0v7m13.28 0v-7m13.28 0v7m13.28 0v-7m13.28 0v7m13.29 0v-7m13.28 0v7m13.28 0v-7m13.28 0v7m13.28 0v-7m13.28 0v7"/>
</g>

<g font-family="Liberation Serif" font-size="14.2">
<text x="51" y="58">10<tspan dy="-6" font-size="10">24</tspan></text>
<text x="104.42" y="58">10<tspan dy="-6" font-size="10">22</tspan></text>
<text x="157.83" y="58">10<tspan dy="-6" font-size="10">20</tspan></text>
<text x="211.25" y="58">10<tspan dy="-6" font-size="10">18</tspan></text>
<text x="264.67" y="58">10<tspan dy="-6" font-size="10">16</tspan></text>
<text x="318.08" y="58">10<tspan dy="-6" font-size="10">14</tspan></text>
<text x="371.5" y="58">10<tspan dy="-6" font-size="10">12</tspan></text>
<text x="424.92" y="58">10<tspan dy="-6" font-size="10">10</tspan></text>
<text x="480.83" y="58">10<tspan dy="-6" font-size="10">8</tspan></text>
<text x="534.25" y="58">10<tspan dy="-6" font-size="10">6</tspan></text>
<text x="587.67" y="58">10<tspan dy="-6" font-size="10">4</tspan></text>
<text x="641.08" y="58">10<tspan dy="-6" font-size="10">2</tspan></text>
<text x="694.5" y="58">10<tspan dy="-6" font-size="10">0</tspan></text>

<text x="41.5" y="172">10<tspan dy="-6" font-size="10">−16</tspan></text>
<text x="94.92" y="172">10<tspan dy="-6" font-size="10">−14</tspan></text>
<text x="147.58" y="172">10<tspan dy="-6" font-size="10">−12</tspan></text>
<text x="201.75" y="172">10<tspan dy="-6" font-size="10">−10</tspan></text>
<text x="257.67" y="172">10<tspan dy="-6" font-size="10">−8</tspan></text>
<text x="311.08" y="172">10<tspan dy="-6" font-size="10">−6</tspan></text>
<text x="364.5" y="172">10<tspan dy="-6" font-size="10">−4</tspan></text>
<text x="417.92" y="172">10<tspan dy="-6" font-size="10">−2</tspan></text>
<text x="473.83" y="172">10<tspan dy="-6" font-size="10">0</tspan></text>
<text x="527.25" y="172">10<tspan dy="-6" font-size="10">2</tspan></text>
<text x="580.67" y="172">10<tspan dy="-6" font-size="10">4</tspan></text>
<text x="634.08" y="172">10<tspan dy="-6" font-size="10">6</tspan></text>
<text x="687.5" y="172">10<tspan dy="-6" font-size="10">8</tspan></text>
<g text-anchor="middle">
<text x="100.44" y="379.28">400</text>
<text x="233.26" y="379.28">500</text>
<text x="366.07" y="379.28">600</text>
<text x="498.88" y="379.28">700</text>
</g>
</g>

<g font-family="DejaVu Sans" font-size="16" text-anchor="end">
<text x="765.07" y="198.55">→ steigende Wellenlänge λ in m</text>
<text x="763.66" y="24.77">← steigende Frequenz ν in Hz</text>
<g text-anchor="middle">
<text x="104.8" y="104.2">Gamma-<tspan x="104.2" dy="20">strahlung</tspan></text>
<text x="223.7" y="104.2">Röntgen<tspan x="223.7" dy="20">strahlung</tspan></text>
<text x="279.74" y="114">UV</text>
<text x="348.23" y="114">Infrarot</text>
<text x="435.7" y="104.2">Mikro-<tspan x="435.7" dy="20">wellen</tspan></text>
<text x="517.7" y="104.2">Radio-<tspan x="517.7" dy="20">wellen</tspan></text>
<text x="664.15" y="114">Langwellen</text>
<text x="304.16" y="228.86">sichtbares Spektrum</text>
<text x="299.1" y="401.95">→ steigende Wellenlänge λ in nm</text>
</g>
</g>
</svg>