<svg xmlns="http://www.w3.org/2000/svg" viewBox="0 0 365.67 202.68"><defs><style>.cls-1{fill:none;}.cls-2{fill:#fff;}.cls-3{fill:#004680;}</style></defs><g id="Bounding_Box" data-name="Bounding Box"><rect class="cls-1" width="365.67" height="202.68"/></g><g id="Logo_Siegel_Kombi" data-name="Logo Siegel Kombi"><circle class="cls-2" cx="263.41" cy="101.34" r="68.03"/><polygon class="cls-3" points="61.11 79.08 59.38 79.08 59.38 75 65.68 75 65.68 79.08 63.98 79.08 63.98 79.93 69.19 79.93 69.19 79.08 67.46 79.08 67.46 70.13 69.19 70.13 69.19 69.27 63.98 69.27 63.98 70.13 65.68 70.13 65.68 74.07 59.38 74.07 59.38 70.13 61.11 70.13 61.11 69.27 55.9 69.27 55.9 70.13 57.63 70.13 57.63 79.08 55.9 79.08 55.9 79.93 61.11 79.93 61.11 79.08"/><path class="cls-3" d="M83.72,76V70.2h1.73v-.93H80.81v.93h1.73V76a3,3,0,0,1-3,3.21c-1.69,0-2.82-1.29-2.82-3.18V70.2H78.5v-.93H73.27v.93H75v6.27c0,2.17,1.8,3.76,4.27,3.76A4.11,4.11,0,0,0,83.72,76Z"/><polygon class="cls-3" points="92.13 71.83 95.99 80.09 100.17 71.37 100.17 79.08 98.43 79.08 98.43 79.93 103.65 79.93 103.65 79.08 101.92 79.08 101.92 70.19 103.65 70.19 103.65 69.27 100.05 69.27 96.33 77.07 92.69 69.27 89.23 69.27 89.23 70.19 90.96 70.19 90.96 79.08 89.23 79.08 89.23 79.93 93.86 79.93 93.86 79.08 92.13 79.08 92.13 71.83"/><path class="cls-3" d="M117.07,77.14c0-1.73-1.27-2.77-3.48-2.84,1.68,0,2.9-1,2.9-2.37,0-1.62-1.24-2.66-3.2-2.66h-5.63v.86h1.73v9h-1.73v.85h6C115.8,79.93,117.07,78.92,117.07,77.14Zm-5.93-6.94h1.64A1.58,1.58,0,0,1,114.51,72a1.79,1.79,0,0,1-1.89,1.94h-1.48Zm0,8.81V74.86h1.66c1.53,0,2.29.74,2.29,2.17s-.79,2-2.31,2Z"/><path class="cls-3" d="M126.25,80.23a5.62,5.62,0,1,0-5.49-5.65A5.68,5.68,0,0,0,126.25,80.23Zm0-10.27c1.93,0,3.5,2.06,3.5,4.64s-1.54,4.66-3.5,4.66-3.49-2.07-3.49-4.68S124.29,70,126.23,70Z"/><polygon class="cls-3" points="143.96 77.6 143.13 77.6 143.13 79.01 139.26 79.01 139.26 70.19 140.99 70.19 140.99 69.27 135.77 69.27 135.77 70.19 137.5 70.19 137.5 79.08 135.77 79.08 135.77 79.93 143.96 79.93 143.96 77.6"/><path class="cls-3" d="M158.17,74.6a5.41,5.41,0,0,0-5.58-5.33h-5.47v.86h1.73v9h-1.73v.85h5.47A5.33,5.33,0,0,0,158.17,74.6ZM150.6,79V70.2h1.83c2.12,0,3.76,1.93,3.76,4.43S154.55,79,152.4,79Z"/><polygon class="cls-3" points="161.56 70.19 164.93 70.19 164.93 79.08 162.97 79.08 162.97 79.93 168.64 79.93 168.64 79.08 166.68 79.08 166.68 70.19 170.05 70.19 170.05 71.49 170.91 71.49 170.91 68.81 170.05 68.81 170.05 69.27 161.56 69.27 161.56 68.81 160.73 68.81 160.73 71.49 161.56 71.49 161.56 70.19"/><rect class="cls-3" x="172.76" y="74.49" width="3.96" height="1.4"/><path class="cls-3" d="M48.65,93.53h1.73V99.3a3,3,0,0,1-3,3.21c-1.68,0-2.81-1.29-2.81-3.18v-5.8h1.75v-.92H41.1v.92h1.76v6.28c0,2.17,1.8,3.76,4.27,3.76a4.11,4.11,0,0,0,4.43-4.2V93.53h1.73v-.92H48.65Z"/><polygon class="cls-3" points="68.97 92.61 64.33 92.61 64.33 93.53 66.09 93.53 66.09 100.13 59.6 92.61 56.63 92.61 56.63 93.53 58.24 93.53 58.7 94.13 58.7 102.42 56.97 102.42 56.97 103.27 61.61 103.27 61.61 102.42 59.86 102.42 59.86 95.61 66.55 103.46 67.24 103.46 67.24 93.53 68.97 93.53 68.97 92.61"/><polygon class="cls-3" points="72.7 93.53 74.43 93.53 74.43 102.42 72.7 102.42 72.7 103.27 77.92 103.27 77.92 102.42 76.19 102.42 76.19 93.53 77.92 93.53 77.92 92.61 72.7 92.61 72.7 93.53"/><polygon class="cls-3" points="85.83 92.61 81.35 92.61 81.35 93.53 82.48 93.53 86.64 103.55 87.19 103.55 91.32 93.53 92.29 93.53 92.29 92.61 88.94 92.61 88.94 93.53 90.26 93.53 87.35 100.66 84.37 93.53 85.83 93.53 85.83 92.61"/><polygon class="cls-3" points="103.04 101.13 102.18 101.13 102.18 102.35 98.26 102.35 98.26 98.31 101.21 98.31 101.21 99.47 102.07 99.47 102.07 96.26 101.21 96.28 101.21 97.39 98.26 97.39 98.26 93.53 102.05 93.53 102.05 94.73 102.88 94.73 102.88 92.15 102.02 92.15 102.02 92.61 94.78 92.61 94.78 93.47 96.51 93.47 96.51 102.42 94.78 102.42 94.78 103.27 103.04 103.27 103.04 101.13"/><path class="cls-3" d="M117.87,103.27v-.85h-.65a1.63,1.63,0,0,1-1.34-.86l-2.14-3.13a2.87,2.87,0,0,0,2.47-3c0-1.87-1.2-2.86-3.44-2.86h-5.45v.92h1.73v8.89h-1.73v.85h5.22v-.85h-1.73V98.59h1.13l2.47,3.71c.57.88.76,1,1.78,1Zm-7.06-5.61V93.53h1.61c1.2,0,1.85.72,1.85,2a1.87,1.87,0,0,1-1.82,2.12Z"/><path class="cls-3" d="M125.73,97.18l-1.64-1c-.78-.46-1-.78-1-1.38a1.58,1.58,0,0,1,1.8-1.55,3.62,3.62,0,0,1,1.94.6v1.16h.86V92.29h-.86v.58a4.19,4.19,0,0,0-2.1-.54,3.13,3.13,0,0,0-3.3,3c0,1.36.7,2.17,2.73,3.19s2.53,1.56,2.53,2.44-.83,1.55-2,1.55a4.27,4.27,0,0,1-2.35-.76v-1.2h-.86v2.88h.86v-.6a5.14,5.14,0,0,0,2.6.76,3.13,3.13,0,0,0,3.35-3C128.27,99,127.71,98.29,125.73,97.18Z"/><polygon class="cls-3" points="137.47 102.42 135.74 102.42 135.74 93.53 137.47 93.53 137.47 92.61 132.26 92.61 132.26 93.53 133.99 93.53 133.99 102.42 132.26 102.42 132.26 103.27 137.47 103.27 137.47 102.42"/><polygon class="cls-3" points="149.77 92.61 141.27 92.61 141.27 92.15 140.44 92.15 140.44 94.83 141.27 94.83 141.27 93.53 144.64 93.53 144.64 102.42 142.68 102.42 142.68 103.27 148.36 103.27 148.36 102.42 146.4 102.42 146.4 93.53 149.77 93.53 149.77 94.83 150.62 94.83 150.62 92.15 149.77 92.15 149.77 92.61"/><path class="cls-3" d="M155.62,88.53a1.17,1.17,0,1,0,0,2.33,1.17,1.17,0,0,0,0-2.33Z"/><path class="cls-3" d="M159.31,103.27h3.88v-.85h-1L158,92.27h-.6L153,102.42h-.88v.85h3.23v-.85H154l1.11-2.52h4.2l1,2.52h-1ZM155.48,99l1.76-4.06L158.92,99Z"/><path class="cls-3" d="M159.71,90.86a1.17,1.17,0,1,0-1.18-1.16A1.17,1.17,0,0,0,159.71,90.86Z"/><polygon class="cls-3" points="174.84 94.83 174.84 92.15 173.99 92.15 173.99 92.61 165.49 92.61 165.49 92.15 164.66 92.15 164.66 94.83 165.49 94.83 165.49 93.53 168.86 93.53 168.86 102.42 166.9 102.42 166.9 103.27 172.58 103.27 172.58 102.42 170.61 102.42 170.61 93.53 173.99 93.53 173.99 94.83 174.84 94.83"/><polygon class="cls-3" points="76.67 125.7 70.53 125.7 77.18 116.47 77.18 115.96 68.99 115.96 68.99 115.5 68.16 115.5 68.16 118.08 68.99 118.08 68.99 116.88 74.76 116.88 68.16 126.14 68.16 126.62 77.5 126.62 77.5 124.13 76.67 124.13 76.67 125.7"/><path class="cls-3" d="M88.46,116.88h1.73v5.77a3,3,0,0,1-3,3.21c-1.68,0-2.81-1.29-2.81-3.19v-5.79h1.75V116H80.91v.92h1.76v6.28c0,2.17,1.8,3.76,4.27,3.76a4.11,4.11,0,0,0,4.43-4.2v-5.84H93.1V116H88.46Z"/><path class="cls-3" d="M108.2,121c1.69,0,2.91-1,2.91-2.38,0-1.61-1.25-2.65-3.21-2.65h-5.63v.85H104v9h-1.73v.85h6c2.19,0,3.46-1,3.46-2.79S110.42,121.06,108.2,121Zm-2.44-4.11h1.63a1.59,1.59,0,0,1,1.74,1.8,1.8,1.8,0,0,1-1.9,1.94h-1.47Zm1.63,8.82h-1.63v-4.16h1.66c1.52,0,2.28.74,2.28,2.17S108.92,125.7,107.39,125.7Z"/><polygon class="cls-3" points="123.15 125.7 119.22 125.7 119.22 121.66 122.18 121.66 122.18 122.81 123.03 122.81 123.03 119.61 122.18 119.63 122.18 120.74 119.22 120.74 119.22 116.88 123.01 116.88 123.01 118.08 123.84 118.08 123.84 115.5 122.99 115.5 122.99 115.96 115.74 115.96 115.74 116.81 117.47 116.81 117.47 125.77 115.74 125.77 115.74 126.62 124 126.62 124 124.47 123.15 124.47 123.15 125.7"/><path class="cls-3" d="M136.85,124.91l-2.15-3.14a2.85,2.85,0,0,0,2.47-3c0-1.87-1.2-2.86-3.44-2.86h-5.44v.92H130v8.89h-1.73v.85h5.21v-.85h-1.73v-3.83h1.13l2.47,3.71c.58.88.76,1,1.78,1h1.68v-.85h-.64A1.62,1.62,0,0,1,136.85,124.91Zm-5.08-3.9v-4.13h1.62c1.2,0,1.84.72,1.84,2a1.87,1.87,0,0,1-1.82,2.12Z"/><polygon class="cls-3" points="149.37 125.7 145.5 125.7 145.5 116.88 147.23 116.88 147.23 115.96 142.01 115.96 142.01 116.88 143.74 116.88 143.74 125.77 142.01 125.77 142.01 126.62 150.21 126.62 150.21 124.29 149.37 124.29 149.37 125.7"/><polygon class="cls-3" points="153.36 116.88 155.09 116.88 155.09 125.77 153.36 125.77 153.36 126.62 158.58 126.62 158.58 125.77 156.84 125.77 156.84 116.88 158.58 116.88 158.58 115.96 153.36 115.96 153.36 116.88"/><polygon class="cls-3" points="170.2 116.88 171.96 116.88 171.96 123.48 165.47 115.96 162.5 115.96 162.5 116.88 164.11 116.88 164.57 117.48 164.57 125.77 162.84 125.77 162.84 126.62 167.48 126.62 167.48 125.77 165.72 125.77 165.72 118.96 172.42 126.8 173.11 126.8 173.11 116.88 174.84 116.88 174.84 115.96 170.2 115.96 170.2 116.88"/><path class="cls-3" d="M218.77,136.66a1.18,1.18,0,1,0-1.44-1.87,1.16,1.16,0,0,0-.21,1.66,1.18,1.18,0,0,0,1.65.21Z"/><polygon class="cls-3" points="227.04 147.71 226.58 147.33 225.86 148.19 222.48 145.35 230.41 143.34 230.65 143.06 226.13 139.27 226.34 139.01 225.88 138.63 224.69 140.05 225.14 140.44 225.7 139.78 228.88 142.44 220.96 144.5 220.74 144.76 225.89 149.09 227.04 147.71 227.04 147.71"/><path class="cls-3" d="M241.23,149.51l-2.92-1.62-.32.58,1.09.61-2,3.63a2.15,2.15,0,0,1-3,1,2.07,2.07,0,0,1-.66-3l2-3.64,1.11.61.32-.58-3.3-1.83-.32.58,1.11.61-2.19,4a2.82,2.82,0,0,0,1.37,3.86,3,3,0,0,0,4.25-1.1l2-3.67,1.09.6.32-.58Z"/><path class="cls-3" d="M249.17,160c1.53.39,2.59-.1,2.9-1.34s-.4-2.16-1.94-2.59a1.86,1.86,0,0,0,2.44-1.16c.29-1.12-.4-2.07-1.77-2.41l-3.93-1-.15.6,1.21.3-1.56,6.25-1.21-.3-.15.6,4.16,1Zm-.84-4,1.16.29a1.42,1.42,0,0,1,1.21,1.91c-.22.92-.89,1.25-1.95,1L247.6,159l.73-2.9Zm.81-3.25,1.14.28a1.15,1.15,0,0,1,.9,1.56,1.29,1.29,0,0,1-1.66,1l-1-.25.65-2.61Z"/><polygon class="cls-3" points="263.56 160.03 262.95 160.01 262.92 160.89 260.09 160.79 260.19 157.89 262.32 157.96 262.29 158.79 262.9 158.81 262.99 156.5 262.37 156.5 262.34 157.3 260.22 157.22 260.31 154.45 263.04 154.55 263.01 155.41 263.61 155.43 263.67 153.57 263.06 153.55 263.04 153.88 257.83 153.7 257.81 154.31 259.06 154.36 258.83 160.8 257.59 160.75 257.56 161.37 263.51 161.57 263.56 160.03 263.56 160.03"/><path class="cls-3" d="M276.92,159.44l-.46.07a1.16,1.16,0,0,1-1-.46l-1.88-2a2,2,0,0,0,1.42-2.37c-.2-1.33-1.17-1.9-2.76-1.65l-3.87.61.1.66,1.23-.19,1,6.31-1.23.2.1.6,3.71-.58-.1-.61-1.23.19-.43-2.72.8-.13,2.17,2.37a1.16,1.16,0,0,0,1.38.49l1.2-.2-.1-.6Zm-6-5.52,1.15-.18c.85-.14,1.39.3,1.54,1.22a1.35,1.35,0,0,1-1.06,1.71l-1.16.18-.47-2.93Z"/><polygon class="cls-3" points="287.04 154.69 286.48 154.9 286.84 155.85 284.24 156.85 281.96 150.93 283.13 150.48 282.89 149.86 279.38 151.21 279.62 151.82 280.78 151.38 283.08 157.35 281.91 157.79 282.13 158.37 287.64 156.25 287.04 154.69 287.04 154.69"/><polygon class="cls-3" points="294.73 151.62 293.67 152.26 290.37 146.78 291.44 146.14 291.1 145.57 287.88 147.5 288.22 148.07 289.29 147.43 292.58 152.91 291.52 153.55 291.83 154.08 295.05 152.14 294.73 151.62 294.73 151.62"/><polygon class="cls-3" points="301.07 138.37 301.98 137.52 301.53 137.03 299.08 139.31 299.54 139.79 300.46 138.94 303.7 142.41 296.59 141.63 295.03 143.09 295.48 143.58 296.33 142.79 296.87 142.87 300.94 147.24 300.02 148.08 300.44 148.53 302.88 146.26 302.46 145.81 301.54 146.67 298.2 143.09 305.57 143.93 305.94 143.59 301.07 138.37 301.07 138.37"/><path class="cls-3" d="M309.26,133a1.19,1.19,0,0,0-1.65.29,1.18,1.18,0,1,0,1.65-.29Z"/><polygon class="cls-3" points="212.03 118.65 212.54 119.78 206.65 122.41 206.14 121.27 205.58 121.52 207.11 124.95 207.67 124.7 207.17 123.57 209.76 122.42 211.61 126.56 209.01 127.72 208.5 126.58 207.94 126.83 209.47 130.26 210.03 130.01 209.53 128.87 215.41 126.25 215.92 127.39 216.48 127.14 214.95 123.71 214.39 123.96 214.9 125.09 212.21 126.29 210.37 122.15 213.06 120.95 213.55 122.08 214.12 121.83 212.59 118.4 212.03 118.65 212.03 118.65"/><path class="cls-3" d="M202.46,106.31l.52,3.3.66-.1-.19-1.23,4.1-.65a2.14,2.14,0,0,1,2.61,1.75,2.06,2.06,0,0,1-1.95,2.36l-4.11.65-.2-1.24-.66.1.59,3.72.66-.1-.2-1.25,4.46-.7a2.82,2.82,0,0,0,2.2-3.46,3,3,0,0,0-3.49-2.68l-4.15.66-.19-1.23-.66.1Z"/><polygon class="cls-3" points="210.52 90.17 210.37 91.4 204.02 90.62 204.17 89.39 203.51 89.31 203.19 91.88 208.44 95.21 202.55 97.13 202.25 99.61 202.9 99.69 203.06 98.45 209.4 99.23 209.25 100.47 209.86 100.54 210.27 97.23 209.66 97.15 209.51 98.39 204.33 97.75 210.57 95.73 204.71 91.98 210.21 92.65 210.06 93.89 210.67 93.97 211.13 90.24 210.52 90.17 210.52 90.17"/><path class="cls-3" d="M214.05,81.41c.56-1.47.21-2.59-1-3s-2.18.13-2.8,1.6a1.86,1.86,0,0,0-.85-2.56c-1.08-.42-2.1.15-2.61,1.47l-1.45,3.78.57.22.45-1.16,6,2.31-.45,1.16.57.22,1.54-4Zm-4.05.35.43-1.11a1.42,1.42,0,0,1,2-1c.88.34,1.13,1,.73,2.06l-.42,1.1L210,81.76Zm-3.13-1.2.42-1.1a1.15,1.15,0,0,1,1.66-.7,1.28,1.28,0,0,1,.81,1.77l-.38,1-2.51-1Z"/><path class="cls-3" d="M219.4,72a4,4,0,1,0-5.6.9,4.09,4.09,0,0,0,5.6-.9Zm-6.06-4.22c.8-1.15,2.66-1.22,4.18-.16s2.11,2.84,1.3,4-2.66,1.19-4.2.12-2.08-2.82-1.28-4Z"/><polygon class="cls-3" points="227.67 59.84 227.24 60.26 227.94 60.98 225.94 62.92 221.53 58.36 222.43 57.49 221.97 57.02 219.26 59.63 219.73 60.1 220.62 59.24 225.06 63.84 224.17 64.7 224.59 65.14 228.84 61.05 227.67 59.84 227.67 59.84"/><path class="cls-3" d="M231.61,58.83,235,56.74a3.83,3.83,0,0,0,1.38-5.38,3.89,3.89,0,0,0-5.44-1.12l-3.34,2.08.32.52,1.06-.66,3.42,5.47-1.06.66.32.52Zm1.78-1.89L230,51.56l1.11-.7a3.21,3.21,0,0,1,3.35,5.39l-1.1.69Z"/><polygon class="cls-3" points="246.86 50.63 245.52 51.09 243.44 45.04 245.73 44.25 246.03 45.13 246.62 44.93 245.99 43.11 245.41 43.31 245.52 43.62 239.74 45.61 239.63 45.3 239.06 45.49 239.69 47.31 240.26 47.12 239.95 46.24 242.25 45.45 244.33 51.49 242.99 51.95 243.19 52.53 247.06 51.2 246.86 50.63 246.86 50.63"/><polygon class="cls-3" points="254.53 44.94 251.41 45.51 251.63 46.75 254.75 46.19 254.53 44.94 254.53 44.94"/><path class="cls-3" d="M267.74,41.25l-3.34,0v.66l1.25,0L265.56,46a2.14,2.14,0,0,1-2.18,2.27,2,2,0,0,1-2-2.32l.07-4.17,1.26,0v-.66L259,41.1v.67l1.26,0-.07,4.52a2.82,2.82,0,0,0,3,2.76,3,3,0,0,0,3.24-3l.07-4.2,1.25,0v-.67Z"/><polygon class="cls-3" points="281.32 44.66 282.52 44.98 282.69 44.34 279.47 43.48 279.3 44.12 280.51 44.44 279.28 49.03 276.18 42.59 274.11 42.04 273.94 42.68 275.06 42.98 275.27 43.49 273.73 49.24 272.52 48.92 272.36 49.52 275.59 50.38 275.75 49.79 274.53 49.46 275.8 44.73 278.99 51.43 279.47 51.56 281.32 44.66 281.32 44.66"/><polygon class="cls-3" points="288.7 54.95 287.6 54.37 290.6 48.72 291.7 49.3 292.01 48.72 288.7 46.96 288.39 47.54 289.49 48.13 286.49 53.77 285.39 53.19 285.1 53.73 288.41 55.49 288.7 54.95 288.7 54.95"/><polygon class="cls-3" points="301.09 55.62 301.65 56.04 302.05 55.51 300.12 54.06 299.72 54.59 300.48 55.16 295.72 58 297.1 52.61 297.93 53.24 298.33 52.71 295.76 50.77 295.36 51.3 296.01 51.79 294.06 59.35 294.38 59.59 301.09 55.62 301.09 55.62"/><polygon class="cls-3" points="305.35 67.76 304.94 67.3 304.29 67.89 302.4 65.79 304.56 63.85 305.98 65.43 305.36 65.98 305.77 66.44 307.49 64.9 307.06 64.45 306.47 64.98 305.05 63.4 307.11 61.55 308.93 63.57 308.29 64.15 308.69 64.59 310.07 63.35 309.66 62.89 309.42 63.12 305.93 59.24 305.47 59.65 306.3 60.58 301.52 64.89 300.68 63.96 300.23 64.38 304.2 68.79 305.35 67.76 305.35 67.76"/><path class="cls-3" d="M312.67,83.64a3.89,3.89,0,0,0,.06,2,2.26,2.26,0,0,0,2.83,1.61c1-.33,1.41-.88,1.73-2.48.08-.39.18-.85.28-1.33.14-.64.31-.89.72-1a1.13,1.13,0,0,1,1.46.89,2.68,2.68,0,0,1,0,1.46L319,85l.19.59,1.89-.62-.19-.58-.39.13a3.06,3.06,0,0,0-.11-1.56,2.25,2.25,0,0,0-2.77-1.6c-.93.31-1.33,1-1.57,2.58s-.51,2.08-1.11,2.28-1.24-.23-1.5-1a3,3,0,0,1,0-1.78l.82-.26-.19-.59-2,.64.19.59.41-.14Z"/><polygon class="cls-3" points="315.77 95.98 315.59 94.74 321.93 93.85 322.1 95.09 322.75 95 322.23 91.28 321.58 91.37 321.75 92.6 315.42 93.49 315.24 92.26 314.64 92.34 315.16 96.06 315.77 95.98 315.77 95.98"/><polygon class="cls-3" points="315.9 105.66 315.95 104.25 322.34 104.47 322.26 106.89 321.33 106.86 321.31 107.47 323.23 107.55 323.26 106.93 322.92 106.92 323.14 100.81 323.47 100.82 323.49 100.23 321.56 100.16 321.54 100.75 322.47 100.79 322.39 103.21 316 102.99 316.05 101.58 315.43 101.56 315.29 105.64 315.9 105.66 315.9 105.66"/><path class="cls-3" d="M313.49,118.08l.17-.69,7.83-1.2.1-.42-6.31-4.86.15-.61-.6-.15-.56,2.26.6.14.22-.9,1.57,1.2-.73,2.93-1.94.29.18-.71-.6-.15-.68,2.71.6.16Zm9.26.68a.9.9,0,0,0,1.08-.63.89.89,0,1,0-1.72-.43.88.88,0,0,0,.64,1.06Zm.71-2.85a.89.89,0,1,0-.64-1.06.9.9,0,0,0,.64,1.06Zm-6.24-2.63,2.53,1.93-3.13.47.6-2.4Z"/><polygon class="cls-3" points="310.04 126.12 310.63 124.84 316.43 127.55 315.4 129.74 314.56 129.35 314.3 129.91 316.04 130.72 316.3 130.16 316 130.03 318.59 124.48 318.89 124.63 319.14 124.08 317.39 123.27 317.14 123.81 317.98 124.2 316.96 126.4 311.17 123.7 311.76 122.42 311.2 122.16 309.48 125.86 310.04 126.12 310.04 126.12"/><path class="cls-3" d="M311.28,79.12l-.23-.41a1.17,1.17,0,0,1,.06-1.14l1.22-2.45a2.06,2.06,0,0,0,2.72.51c1.17-.66,1.37-1.76.58-3.17l-1.92-3.41-.58.32.61,1.09-5.57,3.13-.61-1.09-.54.3,1.84,3.28.54-.3-.61-1.09,2.4-1.35.4.71-1.46,2.86a1.12,1.12,0,0,0,0,1.45l.59,1.06.54-.3Zm3.08-7.56.57,1a1.26,1.26,0,0,1-.61,1.87,1.35,1.35,0,0,1-2-.4l-.58-1,2.59-1.45Z"/><path class="cls-3" d="M276,76.84c-.06,0-1.55-.66-1.75-.7s-.85-.54-1.39-.92-.93-.64-1-.67-.79-.35-1.11-.51L269.14,73l-1.66-1.21a2,2,0,0,0-.68-.34,5.79,5.79,0,0,0-2.26-.24l-2.83.36c-.09,0-2,.38-2.15.46s-1.57,1-2.07,1.29h0l-.21,1.12.13-.12A8.15,8.15,0,0,1,260,72.57a21.41,21.41,0,0,1,4.64-.55A6.42,6.42,0,0,1,268,73.11l1.25,1,1.82.95a19,19,0,0,0,4.38,2.32A8.57,8.57,0,0,1,278,79l.08.07,0-.11C278.25,78,276.13,76.89,276,76.84Z"/><path class="cls-3" d="M283.6,85.55l-.31-1.77-.2-1.06-.35-1.21a10.07,10.07,0,0,0-1.86-3.62,5.13,5.13,0,0,0-1.44-1.66l-.32-.3a9.76,9.76,0,0,0-1.81-1.4c-.2-.12-1.93-1.17-2-1.2l-.29-.1c-.35-.13-.88-.32-1-.36a10.66,10.66,0,0,0-1.1-.19l.2-.06-.54,0v0a.1.1,0,0,0-.06.1c0,.09.1.21.87.42.18,0,1.79.65,1.8.65s1.95,1.18,2.26,1.39A12.12,12.12,0,0,1,280,77.92a13.54,13.54,0,0,1,2.06,4.7l.92,2.6L284,87Z"/><path class="cls-3" d="M286.46,93.2c-.09-.71-.21-1.59-.3-2.12a10,10,0,0,0-1-2.8A5.47,5.47,0,0,0,283.94,87l-.17-.12.67,1.57a20.26,20.26,0,0,1,1.32,5.74l-.33,3.57-.38,1.3c-.13,1.23-.13,1.23-.06,1.24h0l0,0a3.73,3.73,0,0,0,1-1.67c0-.06.29-1.46.33-1.79a18.09,18.09,0,0,0,.17-2.76C286.55,93.88,286.51,93.56,286.46,93.2Z"/><path class="cls-3" d="M292.45,112.56a1.12,1.12,0,0,1-.48-1.19l.22-2.55a5.52,5.52,0,0,0-.53-2.34c-.18-.61-1.13-1-1.18-1.07a8.89,8.89,0,0,0-1.63-.13h-.12a4.87,4.87,0,0,0-2.11.41c-.09,0-.11,0-.16,0a.55.55,0,0,1,.06-.19,1.89,1.89,0,0,0,.14-1.06,5.08,5.08,0,0,1-.29-1.87l1.12-1.58a12.4,12.4,0,0,0,1.31-6.2,37.29,37.29,0,0,0-1.53-9,65.29,65.29,0,0,0-4.09-9.91c-3.16-5.09-10-6.08-10.07-6.09a50.3,50.3,0,0,0-9.2-.44,16,16,0,0,0-4.72,1,9,9,0,0,0-3.79,2.81,6.1,6.1,0,0,0-.26.73,1.92,1.92,0,0,1-2.36-.09c-1.11-.5-1.3-2.7-1.31-2.73a1.25,1.25,0,0,0-1.11-.82,6.39,6.39,0,0,0-4.27.61,7,7,0,0,0-1.9,2.22c-.26,0-1.75.28-3.32,2.66l-1.34,1.62-1.81,1.58,0,0a7.08,7.08,0,0,0-.3,4.18c.06.23.58.62,1.6,1.19l0,0a8.8,8.8,0,0,1-.25,3.8s-.53,1.3-.63,1.54l-.64,1a1.9,1.9,0,0,0-.36,1.38V93a4,4,0,0,1-.53,1.72l-1.29,1.76-1.18,1.72s-.76,1.42-1,1.72l-.19.24a3.24,3.24,0,0,0-.89,1.6,2.29,2.29,0,0,0,.57,1.53,1.89,1.89,0,0,0,1.39.51h.09l.61,0,0,0c0,.1,0,.34,0,.5l.06.52-.06,1.06a2.1,2.1,0,0,0,0,1.28s.26.26.24.5l-.14.52-.12.34c0,.09-.19.94.19,1.12l.48.25s.6.54.33,1.07l-.46.81a2.41,2.41,0,0,0-.54,1.15,4.08,4.08,0,0,0,.54,2.8,4.31,4.31,0,0,0,3,1.72l2.66.33,2.95.54a1.21,1.21,0,0,1,.8,1.27l0,.44a3.89,3.89,0,0,0,.4,1.45l.65,1.4.7,1.29.7,1.69a9.81,9.81,0,0,1,.58,3.36l-.13,3.48v.06l1,0h.06l0-4.84a10.5,10.5,0,0,0-1-3.29l-.59-1.24-.88-1.52a8.06,8.06,0,0,1-.75-2.85l0-1a35.36,35.36,0,0,0,3.43-1.35c.18-.08,2.69-1.73,3.67-2.46,2-1.67,2.53-2.12,2.65-2.27h0a13.68,13.68,0,0,0,2.13-2.17h.47a.39.39,0,0,1,.27.1c.39.34.44,1.39.45,1.41l1.92,8.5L258,123.44l-2.61,6.1L253.35,137l0,.08h1.38V137c.08-6,4.7-14.29,4.75-14.37l4.35-6,4.93-5.36,4.29-4.48c.14-.09,3.51-2.37,3.9-2.69a.31.31,0,0,1,.29,0c.26.11.38.57.38.59a7.55,7.55,0,0,1,.58,1.58c.41,1.3.28,1.72.17,1.85a.2.2,0,0,1-.16.08h0a3.1,3.1,0,0,0-2.16,1.31,4.67,4.67,0,0,0-.52,3.35.36.36,0,0,0,0,.09h-.25a2.46,2.46,0,0,0-2.34,1.4,5.88,5.88,0,0,0-.26,4.69,12.74,12.74,0,0,1,.24,2.64c0,.18-.07,1.73.59,2.09a3,3,0,0,0,1.05.51c.07.13.41.71.91.77h.15c.56,0,1.11-.42,1.63-1.24l.05-.08c.06-.06,1.21-1.1,1.21-1.11a2.14,2.14,0,0,1,1.51-.21c.11,0,1.08,0,1.27-.06a1.91,1.91,0,0,0,1.57-1.08c.07.68.41,2.75,2,3.29a1.67,1.67,0,0,0-.14.75,2.32,2.32,0,0,0,.84,2.46,5.41,5.41,0,0,0,5.2.07,4,4,0,0,0,1.65-3.09,10.17,10.17,0,0,0,0-2.8v0a3.09,3.09,0,0,1,0-3.76,4.26,4.26,0,0,0,1-2.61h0C293.55,113.35,292.49,112.59,292.45,112.56Zm-1.43,9.2a6.28,6.28,0,0,1,.31,3.13,3.49,3.49,0,0,1-5.67,1.72,1.79,1.79,0,0,1-.31-1.58l.06-.12c.17-.52.48-1.48,2.65-1.64.37,0,1.13.63,1.13,1,0,.19-.17.3-.51.31h-.08a1.26,1.26,0,0,1-.29,0,.56.56,0,0,0-.47.18.27.27,0,0,0,0,.24s.19.47,1,.47h.26a1.92,1.92,0,0,0,.42,0c.76-.23.69-1.35.69-1.4a1.72,1.72,0,0,0-.82-1.21l-.85-.48-.54-.06-.93.12a2.59,2.59,0,0,0-1.81,1.44,3.39,3.39,0,0,1-1.36-1.83l-.48-1.4c.09-.16.21-.39.37-.7l.45.14a10.33,10.33,0,0,0,2.24.27l.44,0c.12,0,1.26-.11,1.3-.11l.76,0a4,4,0,0,1,1.7.77l.26.42C291,121.61,291,121.75,291,121.76Zm-17.38-2.16v0a.66.66,0,0,1,.17-.45,1.54,1.54,0,0,1,1.11-.39,1,1,0,0,1,.9.58v0a1.54,1.54,0,0,1,.45.84,3.51,3.51,0,0,0-1.59.57,3.05,3.05,0,0,0-.93,1.06,10.27,10.27,0,0,1-.22-1.91Zm1.49,1.65a1.81,1.81,0,0,1,1.59-.19l.83.71a1.43,1.43,0,0,1-.79,1.23l0,0c-.49.64-1,1-1.35,1h0a.75.75,0,0,1-.55-.32l0,0a1.92,1.92,0,0,1-.49-.53A2,2,0,0,1,275.13,121.25Zm2.92,0-.63-.39a.45.45,0,0,1-.2-.25l-.63-1.4h0s-.81-1-1.38-1.06h-.13a2.61,2.61,0,0,0-.57,0h-.06c-.07,0-.61.19-.85.27h-.45a3.36,3.36,0,0,1,.16-2.58,1,1,0,0,1,.51-.32,1.24,1.24,0,0,1,1.07.31L276,117l.71.86a10,10,0,0,0,1.43,1.89h0l.11,0a.1.1,0,0,0,.08,0c.15-.17-.17-.88-.44-1.32-.09-.13-.2-.31-.32-.51a10.68,10.68,0,0,0-1.48-2.11l-.2-.21a3.59,3.59,0,0,0-1.87-1.19,2.86,2.86,0,0,1,1.9-.89h0l.53.26.41.34.5.61.35.52.42,1.08.24.81.35.74.76,1.11h0a1.4,1.4,0,0,0,.75.25,1.26,1.26,0,0,0,.33,0,1.94,1.94,0,0,0,1.12-1c.84-1.68-1.74-5.41-1.95-5.7a5.84,5.84,0,0,1,1.32-3.69c.55,0,1,0,1.49-.1v.24l-.15,1.14a2.49,2.49,0,0,1-.37.79,4.67,4.67,0,0,0-.7,1.66,2.21,2.21,0,0,0,.14.91c.56.71,1.46,1.88,1.52,2v0c.29,2.21.08,2.65-.49,3.84-.14.29-.3.64-.47,1.05l-.59.57a2.76,2.76,0,0,1-1.85.68l-1.27-.1ZM276.21,112a5.64,5.64,0,0,1,.53-1.87,2.85,2.85,0,0,1,1.46-1,1.17,1.17,0,0,0,.81-.34l1,0c-.3.4-2.18,3-.81,4.8,1,1.34,2,3.17,1.87,3.91a.39.39,0,0,1-.18.26h0c-.34.38-.64.54-.87.48s-.49-.64-.5-.66l-.54-1-.34-1.15a6,6,0,0,0-.71-1.14l-.33-.39-.3-.26-.43-.51-.35-.27-.24-.16-.07,0Zm-40.36-4.21a.49.49,0,0,1,.58-.17,2.61,2.61,0,0,0,.68.38l.86,0a.33.33,0,0,0,.3-.14.51.51,0,0,0,0-.45.21.21,0,0,0-.17-.12h0l-.75,0h0v0a.18.18,0,0,1-.1,0c-.08,0-.25-.09-.49-.46a.79.79,0,0,0-.36-.24c-.06,0-.18,0-.37-.06l-.18,0a.26.26,0,0,1-.2-.1.43.43,0,0,1,0-.27l.1-.54a3.68,3.68,0,0,0,0-2l.12.06.81.13,1,.42s.55.2,1.59-.46l0,0v0a5.48,5.48,0,0,0-.92-2.13l-.05-.06-.24.35v0l.29.73c.17.47.22.69.17.78s-.1.09-.23.13h0a1.11,1.11,0,0,1-1.29-.31h0a4.1,4.1,0,0,0-1.54-.51s-1.09.11-1.37.12a1.38,1.38,0,0,1-1-.24,1,1,0,0,1-.16-.76,1.55,1.55,0,0,0,0-.3,14.62,14.62,0,0,1,1.6-2.33l.42-.53,1.16-2,.95-1.21a3.58,3.58,0,0,0,1.06-2l.07-1.14h0a2.14,2.14,0,0,1,.25-1.28l.51-1,.53-1.42.35-1.42.18-1.94,0-.26a5.5,5.5,0,0,0,.79-1.72,2.57,2.57,0,0,1,1.42-1.64c.34-.16.66-.29.89-.38l.39-.17v0a.5.5,0,0,0,.11-.43.49.49,0,0,0-.39-.25h0a5.57,5.57,0,0,0-1.11.49,8.64,8.64,0,0,0-1.32.88,3.86,3.86,0,0,0-.56.74,4.05,4.05,0,0,1-.36.53l0,0a1,1,0,0,1-.52.41c-.66-.29-1.11-.66-1.14-1,0,0,0-1.1,0-1.46a3.35,3.35,0,0,1,.46-1.88,1.38,1.38,0,0,0,.65.21h.21a4.42,4.42,0,0,0,2.94-1.16,2.68,2.68,0,0,1,2-.64l-.15.19c-.15.25-.55,1.5-.38,1.78a1.92,1.92,0,0,1,.14.31c.16.36.34.81.63.81a.14.14,0,0,0,.11-.05c.08-.1,0-.33,0-.67a2.45,2.45,0,0,1,0-1.54,8,8,0,0,1,3.15-2.79c1.31-.59,2.28-.73,2.88-.41a6.32,6.32,0,0,1,1.44,1.32c.2.23.39.45.55.6a2.27,2.27,0,0,0,1.21.43,9.83,9.83,0,0,0-.33,1,6.28,6.28,0,0,0-1.46,0c-.52-.5-2.2-2-3.29-1.5a8.65,8.65,0,0,0-2.37,1.56c-.19.2-.53.72-.48.95a.14.14,0,0,0,.09.11h0c.26,0,.82-.52,1-.69a5,5,0,0,1,2.17-1.14h0a3.86,3.86,0,0,1,1.94,1,2.26,2.26,0,0,0-.35.17,5.85,5.85,0,0,0-1.41,1.18,2,2,0,0,1-.2.21l0,0c-.6.63-1,.94-1.3.94h0a4.69,4.69,0,0,1-1.33-.49c-.24-.11-.44-.21-.57-.25a1.43,1.43,0,0,0-1.08.17,1.3,1.3,0,0,0-.61.57.12.12,0,0,0,0,.1c.08.1.37.1,1,0l.35,0a5.86,5.86,0,0,1,1.25.54c.25.13.48.25.65.32a.59.59,0,0,0,.23,0,3.71,3.71,0,0,0,1.69-.86,3.59,3.59,0,0,0,.42-.5,5.13,5.13,0,0,1,1.73-1.61,2.23,2.23,0,0,1,1.68-.19c-.11.27-.24.61-.35.87l-.09.35a4.66,4.66,0,0,0-.61.48A11.36,11.36,0,0,1,249,83L249,83c-.6.37-2.34,0-3-.2a.14.14,0,0,0-.12,0s0,0,0,.12a1.93,1.93,0,0,0,1.43.9,5.45,5.45,0,0,0,.76,0,4.38,4.38,0,0,0,2.66-.8l1.69-1.27-.05.15c-.1.17-.8,1.84-.88,2.05a7.24,7.24,0,0,1-.77,2.29l-4,6.19a3.06,3.06,0,0,0-.4,2.06c.13.39.25.63.69.63.21,0,.47,0,.72.05l.55,0h.06a.59.59,0,0,1,.67.51c0,.07,0,1.84,0,2s.05,1.09.05,1.09a1,1,0,0,0,.74.93c.06.11,0,.28-.14.53a6,6,0,0,0-.22,1.31s0,0,0,.06a.41.41,0,0,0,.3.35c.79.34.79.88.79.91v0c.1.23-.38,1.21-.7,1.77-.51.8-.28,3.11-.26,3.22.28,1.11,2.41,1.55,2.51,1.57,2.1.09,3.6.31,3.62.31l.59,0-.17.17-3.8,3.2s-4.36,4-7.86,4h-.2l-1.08-.08-1-.07-.17,0a17,17,0,0,0-2.45-.34c-2.34,0-3.78-.92-3.94-2.52a3.24,3.24,0,0,1,.05-1.77c.1-.11,1.1-1.23,1.09-1.72a3.22,3.22,0,0,0-.57-1.34l0,0h0a.48.48,0,0,1-.58-.19A1.42,1.42,0,0,1,235.85,107.74ZM288,96.45c-.2,3.42-1.66,4.71-2.1,5a.08.08,0,0,0,0,0h0a2.61,2.61,0,0,0-.25.23,4.86,4.86,0,0,1-1.22.87l-.3.15-.29.15a3.21,3.21,0,0,1-.94-.6,2.61,2.61,0,0,0,.37-2,5.84,5.84,0,0,0-.61-1l-.19-.28a4,4,0,0,1-.12-.77,4.7,4.7,0,0,0-.44-1.89,7,7,0,0,0-2.21-1.9,2.53,2.53,0,0,0-1.11-.07c-.24,0-.51,0-.57,0a8.56,8.56,0,0,0-1.71-4.14,2.55,2.55,0,0,0-1.69-.27c-.39.11-1.44.2-1.69-.16l-.07-.12a1.76,1.76,0,0,1-.12-.2l-.1-.18,0-.07c0-.1-1-3-1.3-3.93a2.19,2.19,0,0,0-1.62-1.18,7.76,7.76,0,0,1-1.91-.83,2.12,2.12,0,0,1-.33-1.07,3.57,3.57,0,0,0-.68-1.88c-.75-.73-3.76-1-3.88-1s-.28,0-.49,0c0-.11,0-.19,0-.19l.11-.94a3,3,0,0,0,1.06,0,12.57,12.57,0,0,1,2.66-.24c.61,0,1,.47,1.52,1,.13.15.28.3.43.46a6.14,6.14,0,0,1,.92,1.47,8.27,8.27,0,0,0,1.58,2.33,11.32,11.32,0,0,0,3.1,1.76l.47.2c.28.15.32.34.41.77a8.76,8.76,0,0,0,.31,1.11,4.37,4.37,0,0,0,1.85,2.41,11.92,11.92,0,0,0,2.12.86,11.6,11.6,0,0,1,2,.81,1.85,1.85,0,0,1,.45,1.17,3.12,3.12,0,0,0,.34,1.12,8.54,8.54,0,0,0,1.61,1.5,8.92,8.92,0,0,1,.89.76,2.64,2.64,0,0,1,.57,1.1c.08.26.13.41.22.43h0a.12.12,0,0,0,.08,0c.18-.18.08-.78-.13-1.63a4.17,4.17,0,0,0-1.1-1.25l-.28-.26a2.3,2.3,0,0,0,.65-1.38,5.64,5.64,0,0,0-.82-3.11,4.36,4.36,0,0,0-2.08-1.81l-.53-.17a1.42,1.42,0,0,1-.89-.54c-.47-.5-1-2.77-1.13-4.5a2.22,2.22,0,0,0-1.37-2,13.14,13.14,0,0,0-2.12-.63c-.71-.18-1.45-.36-2-.56a22.49,22.49,0,0,1-3.59-2.18c-.59-.41-1.1-.76-1.39-.93-.91-.52-4.67-1.19-5.47-.88a1.24,1.24,0,0,0-.73.66.83.83,0,0,0-.31-.34,5.15,5.15,0,0,0-1.06-.47l-.19,0a9,9,0,0,1,.86-.59,6.63,6.63,0,0,1,2.71-.49,4.23,4.23,0,0,0,1.44-.17l.12,0-.12-.06a3.38,3.38,0,0,0-1-.26,13.44,13.44,0,0,0-2.07.1c-.4,0-.76.07-.93.07A7,7,0,0,0,259.43,75a9.29,9.29,0,0,0-1-.07h-.07a7.15,7.15,0,0,0-1.27.13,4,4,0,0,0-.84.26,2,2,0,0,1-.25-1.14,1.43,1.43,0,0,1,.4-1h0A7.53,7.53,0,0,1,257.81,72a15.64,15.64,0,0,1,6.26-1.63,52.55,52.55,0,0,1,7.93.31c1.92.24,7.08,2.48,7.13,2.51a9.22,9.22,0,0,1,2.81,2.6c1,1,3.07,5.9,3.08,6,1.3,4.4,1.55,5.13,1.63,5.25h0A35.56,35.56,0,0,1,288,96.45Zm-2,8.67a.58.58,0,0,1,0,.1l-.24.62a2.56,2.56,0,0,0-.11.24.18.18,0,0,1,0,.06l-.13.34c-.16.66-3.35,1.36-4.55,1.58l-.69,0h-.59l-.32,0a2.08,2.08,0,0,0,0-.37l-.13-.58a.37.37,0,0,1,.2-.07,10.1,10.1,0,0,0,3.42-.68l1.41-.58a1.36,1.36,0,0,0,.71-.76.13.13,0,0,0-.05-.14c-.07,0-.18,0-.36.05-.78.34-3.44,1.24-3.46,1.25l-.61.09h-.94c-.27,0-.48-.53-.6-.94.06-.09.31-.34,1.17-.34h.41a13.58,13.58,0,0,0,4.43-1.7,1.59,1.59,0,0,1,.67,0,4,4,0,0,0,.06.41,2.67,2.67,0,0,1,.36,1.47v0Zm4.86,13.6h0a5.7,5.7,0,0,0-.15,1.22,2,2,0,0,0-1.36-.59l-.9-.08-.86,0a6.08,6.08,0,0,0-1.23-3,10.7,10.7,0,0,0-1.42-1.21c-.2-.15-.38-.29-.58-.46-.58-.49-1.57-1.28-1.58-1.28-.48-.59-.45-1,.14-2.08a9.35,9.35,0,0,0,.46-2.77c.39-.07.73-.15,1-.23a17.79,17.79,0,0,0,.16,1.93,4.23,4.23,0,0,1-.24,1.71,1.62,1.62,0,0,0-.13.7,5.93,5.93,0,0,0,1.77,1.66l.39.19a24.1,24.1,0,0,1,2.14,1.14,9.78,9.78,0,0,1,1.26,1.22,10.41,10.41,0,0,0,.78.77,3.31,3.31,0,0,1,.55.72Zm-7-2.78,0-.21.11,0,1.19.92,1,1a1.84,1.84,0,0,1,.51,1l0,.67h-.24l-1.36-.08h0s-.1.09-.33,0h0a1,1,0,0,1-.94-.67l.1-1.08.09-.53h0Zm-.5-23.18a3.09,3.09,0,0,1-.33.81,2.34,2.34,0,0,1-.49-.69,6,6,0,0,1-.19-.6,3.09,3.09,0,0,0-1.21-2,7.16,7.16,0,0,0-2.33-1,8.84,8.84,0,0,1-2.13-.82,4.54,4.54,0,0,1-.86-2,9.4,9.4,0,0,0-.53-1.58,2.65,2.65,0,0,0-2.05-1.22l-.51-.12a6.72,6.72,0,0,1-3.29-3.73c-1-2.26-2.08-2.5-2.67-2.63h-.05a17.14,17.14,0,0,0-2.79.11l-.83.07a.88.88,0,0,1-.46-.22c.13-.49.42-1.16,1-1.16a8.25,8.25,0,0,1,4.45,1.05c.44.25.95.57,1.48.9a23.38,23.38,0,0,0,5.21,2.72l.14,0c1.82.47,2.58.66,2.81,1.54a9.62,9.62,0,0,1,.19,1.22,8.36,8.36,0,0,0,.82,3.16,6.68,6.68,0,0,0,1.78,1.49,6.32,6.32,0,0,1,1.95,1.69A4.66,4.66,0,0,1,283.33,92.76Zm-5.05,10.76a5.19,5.19,0,0,0-.49-1,5.7,5.7,0,0,0-1.54-1.45,8.4,8.4,0,0,0-1-.39.34.34,0,0,0-.05-.25l-.06-.08c-.16-.22-.16-.22-.15-.67V98.5a1.62,1.62,0,0,0-.11-.49l.55-.13a3.26,3.26,0,0,0,1.69-1.27,5.89,5.89,0,0,0,.5-1.35,2.19,2.19,0,0,1,1.12-.12,4.85,4.85,0,0,1,1.9,1.16,4.52,4.52,0,0,1,.37,1.13c0,.13.07.26.1.38l-2,.17-1.25.29-1.44.6.36.42,0,0h0c.14,0,1.35-.16,1.47-.2a6.14,6.14,0,0,1,3.25-.16h0s.08,0,.12.07l.15.23a5,5,0,0,1,.53,1,3.3,3.3,0,0,1-.57,1.52,3,3,0,0,1-1.07.3l-.82-.08-.55-.13a2.72,2.72,0,0,0-.42-.15,4.27,4.27,0,0,1-.51-.24c-.48-.4-.55-.4-.57-.4l-.72-.24-.69-.05.41.49.43.23.37.09.61.53.57.38.35.15.48.16.88.1,1.07-.05c.37.09.78.24.79.33l.11.3-.16.06a6.21,6.21,0,0,1-3.07.67h-.42l-.59-.64Zm-4.95-3.46a6.11,6.11,0,0,1-1.16-.84l-.09-.08a4.37,4.37,0,0,0-1.51-1l-.17,0h0c-.27-.31-.66-.82-.6-1.08a1.07,1.07,0,0,1,.51-.78,6,6,0,0,1,1.38-.1l0,0c.35.22,1.22.73,1.23.73a2,2,0,0,1,1,1.24,4.47,4.47,0,0,1-.19,2Zm-2.11-11.45c-.5.08-1.22.16-1.48-.06a4.94,4.94,0,0,1-.68-.85,4.89,4.89,0,0,0-.53-.7,3.86,3.86,0,0,0-1.1-.71,7,7,0,0,0-.86-1.31,18.71,18.71,0,0,0-1.6-1.32l-.56-.42a10.15,10.15,0,0,0-2.78-1.53c.24-.67.41-1.22.52-1.65a7.88,7.88,0,0,0,1.05.11,5.41,5.41,0,0,1,3.17.87,3.23,3.23,0,0,1,.25,1.08c.11.73.22,1.49.47,1.65a7.3,7.3,0,0,0,1.11.5,5.42,5.42,0,0,1,2.3,1.39A4.94,4.94,0,0,1,271.22,88.61Zm5.72,5.73a8.4,8.4,0,0,1-.52,1.65,2.58,2.58,0,0,1-1.1,1,1.38,1.38,0,0,1-.79.1,1.42,1.42,0,0,0-.71-.54,3.16,3.16,0,0,1-.54-.31c-.22-.17-.56-.41-.85-.6a2.58,2.58,0,0,0,.79-1.33,6.15,6.15,0,0,0,.15-1.74V92.5a4.61,4.61,0,0,0-.12-1.18,2.08,2.08,0,0,1,1.91-.55c.8.15,1.51,1.89,1.77,2.79A3.65,3.65,0,0,1,276.94,94.34ZM263.88,83.7a17.52,17.52,0,0,1,1.81,1.65l.1.09a1.11,1.11,0,0,1,.22.38,7.45,7.45,0,0,0-1.51-.25,2.88,2.88,0,0,0-1.62.6l-.15.13a7.55,7.55,0,0,0-1.29-2c-.59-.59-.54-.92-.54-.92.12-.24.22-.48.32-.71A5.9,5.9,0,0,1,263.88,83.7Zm-1.11,5a5.77,5.77,0,0,0,.09-1.49,2.3,2.3,0,0,1,1-.75,4.48,4.48,0,0,1,2.11.13,3.91,3.91,0,0,1,2.07,1,5.58,5.58,0,0,1,.39.56,2.7,2.7,0,0,0,.89,1,8.09,8.09,0,0,0,1.42.39l.33.07a1.71,1.71,0,0,1,.9.49s0,0,0,0a9.63,9.63,0,0,1,.51,2.78,4,4,0,0,1-.43,1.55l-.09.2c-.06.17-.1.27-.22.27a.31.31,0,0,1-.15,0,3,3,0,0,1-.38-.15,2.88,2.88,0,0,0-.53-.19,3.52,3.52,0,0,0-.93-.11s-.95.18-1.3-.28a2.18,2.18,0,0,1-.31-.72c-.09-.3-.17-.56-.4-.62a1.45,1.45,0,0,1-.25-.11l.09-.12a2.24,2.24,0,0,0,.48-1.08,4.56,4.56,0,0,0-.12-1.49,6.75,6.75,0,0,0-.71-1.46,4.22,4.22,0,0,0-1.8-.83h0c-.08,0-.11.06-.11.08,0,.21.78.7.87.76a3.21,3.21,0,0,1,1.07,1.56,4.57,4.57,0,0,1-.31,1.7,3.15,3.15,0,0,1-1.6.19,5.05,5.05,0,0,1-.81-.39,7.61,7.61,0,0,0-.7-.35A7,7,0,0,1,262.31,90a5.33,5.33,0,0,1,.46-1.25Zm.66,3.09a1.37,1.37,0,0,1,.68.55,1.47,1.47,0,0,0,.1.13,22.63,22.63,0,0,0,.32,2.36,3.88,3.88,0,0,0,.25.73,1.57,1.57,0,0,1,.2.86,6.6,6.6,0,0,0,0,1.18c-1.16,0-1.35-.09-1.36-.1a30.92,30.92,0,0,1-.79-4.74l-.33-1.37A5.9,5.9,0,0,0,263.43,91.78ZM265.51,96l-.06-.24a8.22,8.22,0,0,1-.36-1.76c0-.36,0-.93-.06-1.24.19.09.4.21.6.33a5.55,5.55,0,0,0,.62.33.61.61,0,0,0,.25.06s.08,0,.11,0a4,4,0,0,1-.15.43,3.53,3.53,0,0,0-.14,1.21,5.1,5.1,0,0,0,.22,1.42c.06.16.16.58.24.92-.4,0-.75.08-1,.1A10.06,10.06,0,0,0,265.51,96Zm2.84,2.67v0a2.41,2.41,0,0,1-.32-.76.31.31,0,0,0-.08-.28l0,0-.06,0a1.64,1.64,0,0,1-.62-1.13,7.16,7.16,0,0,0-.15-1c-.09-.48-.19-1-.08-1.14a1.74,1.74,0,0,1,.53-.41,5.93,5.93,0,0,1,.46.5l.13.19a1.43,1.43,0,0,0,1.12.8h.11a4.17,4.17,0,0,1,1.24.23,1.36,1.36,0,0,0-.82.23,2.32,2.32,0,0,0-.69,1.17,3.49,3.49,0,0,0,.12,1.15v.07a1.48,1.48,0,0,0,.16.37,4,4,0,0,0-.61.52A.76.76,0,0,1,268.35,98.69ZM291.11,112a.24.24,0,0,1-.09,0h-.08c-2.4.47-3.19.17-3.42-.16a.71.71,0,0,1,0-.68c.06,0,.17-.09.69-1.8.2-.53-.32-1.2-.39-1.28a13.53,13.53,0,0,0-1.16-1.42l.08-.11h0c.26,0,1.08-.23,1.11-.24,1.71-.2,3.17-.2,3.6,2.14A12.59,12.59,0,0,0,291.11,112Zm-36-36.83-.83,1.28s-.08.16-.19.38a.87.87,0,0,1-.51,0,11.07,11.07,0,0,1-1.69-1.53,2.08,2.08,0,0,0-.21-.21,1.85,1.85,0,0,1,.47-.18l.19,0a2.54,2.54,0,0,0,2,.29l.9-.09Zm-3.48-1a1.46,1.46,0,0,0-.58.32l-.14-.12a2.84,2.84,0,0,0-2.45-.18,4.48,4.48,0,0,0-.82.45.56.56,0,0,1-.42-.18l-.13-.13c-.41-.41-.82-.82-.92-.89a4.68,4.68,0,0,0-1.09-.45l.14-.17.3-.41a4.74,4.74,0,0,1,.93-1l.09,0a2.56,2.56,0,0,1,1-.33h0l1.81.14s1.22,0,1.45,1l.62,1.69a2.25,2.25,0,0,0,.19.35Zm-7-.44a2.59,2.59,0,0,1,1.29.5,10.93,10.93,0,0,1,1,.94,15.31,15.31,0,0,0-1.51,1.2c-.15.14-.32.32-.5.51a3.49,3.49,0,0,0-3.1.83,2.43,2.43,0,0,1-2.61.73l1-.84a8.61,8.61,0,0,0,1.38-1.66,12.58,12.58,0,0,1,2.15-1.84ZM253.68,109h-.25c-1.47,0-2.45-.36-2.93-1.09a3.24,3.24,0,0,1,0-2.76L251,104c.07-.2.17-.18.36-.15a1.08,1.08,0,0,0,.19,0h.06c.2,0,.31-.05.36-.15s-.21-.56-.25-.6a1.33,1.33,0,0,1-.38-.89.9.9,0,0,1,.32-.63h0v0a.16.16,0,0,0,0-.13.45.45,0,0,0-.33,0h0c-.6.39-.87.08-.88.07a.68.68,0,0,1-.12-.5.66.66,0,0,1,.28-.39h0s.33-.33,1.49,0a3.66,3.66,0,0,0,1,0,.57.57,0,0,0,.54-.54v0l0,0c-.29-.21-.42-.32-.51-.39a1.38,1.38,0,0,0-.32-.2c-.08,0-.14,0-.21.13s-.42.52-1.14,0c-.53-.51-.66-.5-.76-.49h-.32c-.32,0-.36,0-.48-.45l-.05-2.44,0-.66,1,.13a2.44,2.44,0,0,0,1,.16h0a.94.94,0,0,0,.6-.29.89.89,0,0,0,.14-1.09l0-.13-.05.13c-.27.64-1.53.5-1.68.48a3.43,3.43,0,0,0-2.54-.39c-.54.08-.89,0-1.05-.22s.09-1,.09-1L249,90.42s2-2.73,3-4.48v0a10.94,10.94,0,0,1,.56-2.61,4.77,4.77,0,0,0,1-1.66c1-3.4,1.21-4.11,1.21-4.12.13-.54.81-1.66,1.59-1.81l.27,0a9.62,9.62,0,0,1,1.62-.13l.26,0a8.63,8.63,0,0,1,2.54.67c1.16.35.4,3.28.39,3.3l-1.72,3.73c-.16.33.47.9.53,1s1,1.21,1,1.26a2.66,2.66,0,0,1,.7,2.14,2.15,2.15,0,0,1-.32,1.62,3.39,3.39,0,0,0-.27.54h0a10.59,10.59,0,0,0,.35,2.32s0,0,0,0a8.49,8.49,0,0,1-2.12,1.15l-.77.29c-1.43.53-1.88.72-1.88.87a.14.14,0,0,0,.05.1,1.34,1.34,0,0,0,.62.1,4.58,4.58,0,0,0,.74-.06,18.25,18.25,0,0,0,1.82-.58c.26-.1,1.28-.54,1.81-.78.08.38.16.77.22,1.13-.19.11-.4.22-.6.31s-.84.41-1.2.6l-.4.2c-.17.09-.87.51-.89.64s0,.06,0,.1a1,1,0,0,0,.54.21h0A8.14,8.14,0,0,0,261,96l.53-.21.92-.42,0,.06a10.29,10.29,0,0,0,.34,2.81c.19.22,1.5.19,4,0a2.22,2.22,0,0,1,1.34,1.71l-.23.67c-.37.92-1.86,5-1.87,5s-.09.2-.14.31a2,2,0,0,1-1.69,1.43,16.21,16.21,0,0,1-3.43.93,20.57,20.57,0,0,1-4.15.55Zm5.57.88a.45.45,0,0,1,0-.16c0-.13.58-.27,1.13-.32,5.24-.9,6-2.29,6.26-2.82,0,0,.05-.1.08-.14a58.83,58.83,0,0,0,2.56-6.42,2.85,2.85,0,0,1,1-.75c.54-.16,1.05.4,1.05.4h0c.24.15,1.3,1,1.31,1a4.54,4.54,0,0,0,1.33.51c.26.06,1.06.36,1.54.54l.39.15a3,3,0,0,1,.83.59.53.53,0,0,0,.12.15,1.27,1.27,0,0,1,.07.44l-.33.27-4.37,3.19c-3.47,2.69-8.05,8.52-8.1,8.58l-2.56,3.23-.33.49-.34-1.78-1.08-5A11.09,11.09,0,0,0,259.25,109.83Zm32.41,7.51a10.27,10.27,0,0,1-1-1,10,10,0,0,0-2.82-2.13l-.32-.16c-1-.47-1.94-.95-2.23-1.68a1,1,0,0,1,.11-.92,2,2,0,0,0,.18-1.49c-.21-.82-.38-1.5-.49-1.9a2.48,2.48,0,0,0,.67-.38,2.15,2.15,0,0,0,.41-.36c.13.21.28.47.34.58h0a3.74,3.74,0,0,1,.91,1.23l-.85,2.14c-.18.73-.15,1.22.08,1.47a.8.8,0,0,0,.78.15l4.41.27a4.34,4.34,0,0,1,.74,2.67v0s0,.22-.64,1Z"/><path class="cls-3" d="M240.34,95a6.34,6.34,0,0,0,0-1V93.8a.33.33,0,0,1,.12-.24.89.89,0,0,1,.37,0H241a5,5,0,0,1,.5,0,7.1,7.1,0,0,1,.73.13.62.62,0,0,1,.2.1,3,3,0,0,0,.31.15l.2.07a4.44,4.44,0,0,1,.72.29,4.39,4.39,0,0,1,.6.65,3.17,3.17,0,0,0,.31.38,1.11,1.11,0,0,0,.42.24,1,1,0,0,0,.43,0l.09,0-.06-.08c0-.06-.41-.61-.69-1.06l-.5-.77a.85.85,0,0,0-.41-.21l-.33-.1-.28-.09-.41-.18c-.14-.06-.28-.13-.4-.17l-.22-.1a3.94,3.94,0,0,0-.95-.32,8.47,8.47,0,0,0-1.79.12.34.34,0,0,0-.21.31,1.56,1.56,0,0,0,.14.41c0,.07,0,.14.07.2a3.27,3.27,0,0,1,.11.43,10.21,10.21,0,0,1,0,1.11,1.66,1.66,0,0,1-.15.58l0,0a3.61,3.61,0,0,1-.29.43c-.17.23-.19.26-.17.3l0,0H239a2.52,2.52,0,0,0,.91-.15A4.3,4.3,0,0,0,240.34,95Z"/><path class="cls-3" d="M243.67,95.76l-.1-.1c-.14-.12-.24-.22-.29-.25l-.16-.13-.14-.12-.21-.14-.06,0s-.31-.21-.38-.23h0l-.27-.12s0,0-.07,0a.53.53,0,0,0-.15-.12,4.13,4.13,0,0,0-.65-.15h0a.74.74,0,0,0-.39.22.31.31,0,0,0,0,.19.33.33,0,0,0,.14.21l.24.1a3.11,3.11,0,0,0-.11.49,2.79,2.79,0,0,0,0,.59,1.49,1.49,0,0,0,.29.5.7.7,0,0,0,.32.17h0a.22.22,0,0,0,.14-.05.31.31,0,0,0,0-.28,3.07,3.07,0,0,1-.06-.51v-.09a1.22,1.22,0,0,1,.18-.46,1,1,0,0,1,.15.08,4.92,4.92,0,0,1,.61.47.5.5,0,0,0,.12.08c.14.09.22.15.18.3a.62.62,0,0,1-.36.43,4.24,4.24,0,0,1-.51.21,6,6,0,0,1-.63.11l-.42,0h0s-.18.08-.19.18.12.17.13.17h.5l.3,0h.5a2.57,2.57,0,0,0,.54-.16,8.68,8.68,0,0,0,.89-.49.56.56,0,0,0,.18-.23.6.6,0,0,0,0-.35A1.6,1.6,0,0,0,243.67,95.76Z"/><path class="cls-3" d="M253.83,85.44h0a9.53,9.53,0,0,1,1.65.37,2.44,2.44,0,0,1,.7.27,9.72,9.72,0,0,1,.89.81,1.17,1.17,0,0,0,.33.23c.13.07.21.11.24.28s0,.11.15.14a.41.41,0,0,0,.16,0,.57.57,0,0,0,.42-.15.19.19,0,0,0,0-.24c-.07-.15-.09-.18-.14-.2a1,1,0,0,1-.22-.26,2.9,2.9,0,0,0-.58-.58l-.25-.21a3.69,3.69,0,0,0-.77-.59l-.08-.06a4.93,4.93,0,0,0-2.25-.72h0a3.29,3.29,0,0,0-1,.45l0,0,.14.39h0A2.52,2.52,0,0,0,253.83,85.44Z"/><path class="cls-3" d="M257.89,89h.19a.24.24,0,0,0,.21-.12s0-.09.17-.16a.07.07,0,0,0,0-.1,2.67,2.67,0,0,0-1.43-.11c-.11,0-.3.08-.5.13a2.64,2.64,0,0,0-.71.21,1.42,1.42,0,0,1-.27.12c-.25.09-.54.19-.51.42a.13.13,0,0,0,.07.12.25.25,0,0,0,.16,0,3.06,3.06,0,0,0,.8-.21l.22-.08a2,2,0,0,1,.38-.09l.52-.1A1.93,1.93,0,0,1,257.89,89Z"/><path class="cls-3" d="M255.36,87a3.08,3.08,0,0,1,1,.68l0,0c-.11.07-.34.19-.57.3-.5.24-.64.32-.66.39v0l0,0s0,0,.05,0h0a5.58,5.58,0,0,0,1.39-.38,1.3,1.3,0,0,0,.35-.41v0l-.06-.31h0a1.84,1.84,0,0,0-.22-.36,4.05,4.05,0,0,0-1.45-.81s-1.65-.27-1.83-.09,0,.56,0,.6v.05h.1l.51,0a4.17,4.17,0,0,0,0,.52s0,.08,0,.12a1.08,1.08,0,0,0,.18.51.41.41,0,0,1,.05.09c.07.11.12.2.28.2h.1c.18,0,.18-.25.17-.46a1.36,1.36,0,0,1,0-.35,1.08,1.08,0,0,1,.23-.47Z"/></g></svg>